<?xml version="1.0" encoding="utf-8"?>
<!-- Generator: Adobe Illustrator 26.0.1, SVG Export Plug-In . SVG Version: 6.00 Build 0)  -->
<svg version="1.1" id="Layer_1" xmlns="http://www.w3.org/2000/svg" xmlns:xlink="http://www.w3.org/1999/xlink" x="0px" y="0px"
	 viewBox="0 0 17.4 17.4" style="enable-background:new 0 0 17.4 17.4;" xml:space="preserve">
<style type="text/css">
	.st0{fill:#FFFFFF;}
</style>
<g>
	<g id="Component_7_17_00000076599561222298472490000011734345805765986228_" transform="translate(1576.14 71.24)">
		<path id="Path_14_00000119107125313711279380000009208632328499418786_" class="st0" d="M-1567.38-65.93
			c-1.87,0-3.39,1.52-3.39,3.39c0,1.87,1.52,3.39,3.39,3.39s3.39-1.52,3.39-3.39C-1564-64.41-1565.51-65.92-1567.38-65.93
			 M-1567.38-60.37c-1.2,0-2.17-0.97-2.17-2.17s0.97-2.17,2.17-2.17c1.2,0,2.17,0.97,2.17,2.17l0,0
			C-1565.21-61.34-1566.18-60.37-1567.38-60.37"/>
		<path id="Path_15_00000015326422856169830330000013735874171012627369_" class="st0" d="M-1564.69-55.66h-5.49
			c-2.28,0-4.13-1.85-4.13-4.13v-5.49c0-2.28,1.85-4.13,4.13-4.13h5.49c2.28,0,4.13,1.85,4.13,4.13v5.49
			C-1560.56-57.51-1562.41-55.66-1564.69-55.66 M-1570.18-68.12c-1.57,0-2.84,1.27-2.84,2.84v5.49c0,1.57,1.27,2.84,2.84,2.84h5.49
			c1.57,0,2.84-1.27,2.84-2.84v-5.5c0-1.57-1.27-2.84-2.84-2.84L-1570.18-68.12z"/>
	</g>
	<circle class="st0" cx="12.06" cy="4.93" r="0.77"/>
</g>
</svg>
