<?xml version="1.0" encoding="utf-8"?>
<!-- Generator: Adobe Illustrator 26.0.1, SVG Export Plug-In . SVG Version: 6.00 Build 0)  -->
<svg version="1.1" id="Layer_1" xmlns="http://www.w3.org/2000/svg" xmlns:xlink="http://www.w3.org/1999/xlink" x="0px" y="0px"
	 viewBox="0 0 17.4 17.4" style="enable-background:new 0 0 17.4 17.4;" xml:space="preserve">
<style type="text/css">
	.st0{fill:#6D6D6D;}
</style>
<path class="st0" d="M12.72,1.88H4.68c-1.55,0-2.8,1.26-2.8,2.8v8.04c0,1.55,1.26,2.8,2.8,2.8h8.04c1.55,0,2.8-1.26,2.8-2.8V4.68
	C15.53,3.13,14.27,1.88,12.72,1.88z M5.97,13.64H3.92V7.04h2.05V13.64z M4.95,6.14c-0.66,0-1.19-0.53-1.19-1.19c0,0,0,0,0,0
	c0-0.66,0.53-1.19,1.19-1.19c0,0,0,0,0,0c0.66,0,1.19,0.53,1.19,1.19S5.61,6.14,4.95,6.14z M13.64,13.64H11.6v-3.21
	c0-0.76-0.01-1.75-1.07-1.75S9.3,9.52,9.3,10.38v3.26H7.25l0-6.59h1.96v0.9h0.03c0.4-0.68,1.14-1.09,1.94-1.06
	c2.08,0,2.46,1.36,2.46,3.14V13.64z"/>
</svg>
