<svg id="Layer_1" data-name="Layer 1" xmlns="http://www.w3.org/2000/svg" viewBox="0 0 1000 1000"><defs><style>.cls-1{fill:#fff;}</style></defs><path d="M58.93,259.14,117.07,392h-16.5L84,352.81H34.05L17.47,392H1Zm0,33.61L38.59,339.8H79.27Z"/><path d="M128.67,392V256.7h13.7v91.65l38.5-36.22h18.24L159.22,348.7,202.69,392H183.57l-41.2-42.16V392Z"/><path d="M290.67,312.13V392H277.4V377.51a34.82,34.82,0,0,1-12.26,13.31,31.28,31.28,0,0,1-16.72,4.58q-17.19,0-27.71-11.82t-10.52-31.3q0-19.72,10.21-31.38t27.33-11.65a32.86,32.86,0,0,1,17.41,4.49,32.5,32.5,0,0,1,11.92,13.4v-15ZM277.4,352.81q0-13.53-7.37-21.78t-19.25-8.25q-12.3,0-19.2,7.59t-6.9,21.21q0,14.51,6.94,22.35t19.68,7.86q12.22,0,19.16-7.64T277.4,352.81Z"/><path d="M392,256.7V392H378.74V377.51a34.71,34.71,0,0,1-12.22,13.27,31.32,31.32,0,0,1-16.76,4.62q-17.19,0-27.71-11.82t-10.52-31.3q0-19.63,10.3-31.33t27.41-11.7a30.66,30.66,0,0,1,29.15,17.89V256.7Zm-13.27,95.76q0-13.36-7.42-21.52t-19.55-8.16q-12.13,0-18.94,7.42T326,350.71q0,14.76,6.89,23.09t19,8.34q12.57,0,19.69-7.86T378.74,352.46Z"/><path d="M490.81,354.12H427.53v1.22q0,12.82,7.33,20.73T454,384a25.5,25.5,0,0,0,14.49-4.32q6.45-4.32,11.43-13l10.39,7a40,40,0,0,1-37,21.82q-18.25,0-29.51-12t-11.26-31.6q0-18.76,11.18-30.73t28.72-12q17.71,0,28.06,11.35t10.34,31ZM476.15,343q-.7-10.56-7-16.28T451.79,321q-9.94,0-16.58,6t-7.68,16Z"/><path d="M622.26,392V345q0-12.13-4.88-18t-15-5.89a23.29,23.29,0,0,0-10.17,2.23,22,22,0,0,0-7.9,6.33,20.27,20.27,0,0,0-3.4,7.33q-1,4.18-1,13.79V392H566.66V345q0-12.13-4.89-18t-15-5.89a23.81,23.81,0,0,0-10.26,2.23,21.75,21.75,0,0,0-8,6.33,19.8,19.8,0,0,0-3.27,7.07q-1,4-1,14V392H511.06V312.13h13.35v12.31A33.2,33.2,0,0,1,536.28,313a32.76,32.76,0,0,1,15.89-3.75q9.69,0,16.5,4.14A26,26,0,0,1,579,325.48a35.22,35.22,0,0,1,12.18-12.22,32.29,32.29,0,0,1,16.28-4q13.35,0,20.86,7.51t7.51,20.86V392Z"/><path d="M659.79,273.63a9.58,9.58,0,0,1,2.93-7,9.68,9.68,0,0,1,7.11-2.93,9.51,9.51,0,0,1,7,3,9.82,9.82,0,0,1,2.92,7.16,9.51,9.51,0,0,1-2.88,7,9.62,9.62,0,0,1-7.07,2.88,9.76,9.76,0,0,1-7.11-2.88A9.64,9.64,0,0,1,659.79,273.63ZM663,392V312.13h13.79V392Z"/><path d="M779.63,312.13V392H766.37V377.51a34.92,34.92,0,0,1-12.27,13.31,31.26,31.26,0,0,1-16.72,4.58q-17.19,0-27.71-11.82t-10.52-31.3q0-19.72,10.21-31.38t27.33-11.65a32.86,32.86,0,0,1,17.41,4.49A32.5,32.5,0,0,1,766,327.14v-15Zm-13.26,40.68q0-13.53-7.38-21.78t-19.25-8.25q-12.3,0-19.2,7.59t-6.9,21.21q0,14.51,6.94,22.35t19.69,7.86q12.21,0,19.16-7.64T766.37,352.81Z"/><path d="M33.36,514.13v57.35H18.52V443.69h26.8q14,0,20.68,1.48a32.12,32.12,0,0,1,11.52,4.89,29,29,0,0,1,9.56,12,42.85,42.85,0,0,1,0,33.69,29.09,29.09,0,0,1-9.56,12,31.07,31.07,0,0,1-11.47,5q-6.6,1.49-20.73,1.49h-12Zm0-13.79H41q19.55,0,26.32-4.59t6.76-16q0-12.23-6.94-17.2t-26.14-5H33.36Z"/><path d="M104.58,571.48V491.61h12.13v16.58q5.51-10.38,11.7-14.84a25.24,25.24,0,0,1,15.1-4.45,27.72,27.72,0,0,1,4.71.39,30.36,30.36,0,0,1,4.54,1.18l-4.54,12.31a34,34,0,0,0-4.45-1.18,22,22,0,0,0-4-.39q-10.81,0-16.23,7.81t-5.41,23.53v38.93Z"/><path d="M160.35,531.76a43,43,0,0,1,3.23-16.63A41.85,41.85,0,0,1,173,501.21a43,43,0,0,1,14.06-9.3,44.23,44.23,0,0,1,16.76-3.18A42.74,42.74,0,0,1,220.36,492a44.59,44.59,0,0,1,14.18,9.42A40.82,40.82,0,0,1,244,515.22a42.92,42.92,0,0,1,3.23,16.54A42.31,42.31,0,0,1,244,548.22,40.92,40.92,0,0,1,234.54,562a44.9,44.9,0,0,1-14.27,9.61,42.11,42.11,0,0,1-16.45,3.31,43.3,43.3,0,0,1-16.72-3.27,43.53,43.53,0,0,1-23.52-23.35A42,42,0,0,1,160.35,531.76Zm14.49,0a29.71,29.71,0,0,0,8.46,21.43A27.47,27.47,0,0,0,203.82,562a27.08,27.08,0,0,0,20.34-8.77,31.59,31.59,0,0,0,0-42.86,27.08,27.08,0,0,0-20.34-8.77,27.42,27.42,0,0,0-20.56,8.77A29.76,29.76,0,0,0,174.84,531.76Z"/><path d="M271.72,571.48V502.87H256.36V491.61h15.36V468.48q0-19.91,5-26.93t18-7a41.79,41.79,0,0,1,6.15.44,29.9,29.9,0,0,1,5.63,1.39v14.14a22.61,22.61,0,0,0-5.28-2.18,21.68,21.68,0,0,0-5.46-.7q-6,0-8.29,3.84t-2.27,18.86v21.3h21.3v11.26H285.6v68.61Z"/><path d="M390.78,533.59H327.49v1.23q0,12.82,7.34,20.73t19.11,7.9a25.45,25.45,0,0,0,14.49-4.32q6.46-4.32,11.44-13l10.39,7a40,40,0,0,1-37,21.82q-18.24,0-29.5-12t-11.26-31.6q0-18.76,11.17-30.73t28.72-12q17.72,0,28.06,11.35t10.35,31Zm-14.67-11.08q-.69-10.56-7-16.28t-17.33-5.72q-9.94,0-16.59,6t-7.68,16Z"/><path d="M402.55,558l11.7-7.86a24.11,24.11,0,0,0,8.38,9.56,22,22,0,0,0,12,3.18q6.72,0,10.87-3.31a10.64,10.64,0,0,0,4.14-8.73,9.42,9.42,0,0,0-2.83-7q-2.83-2.79-9.74-5.15c-.46-.17-1.22-.43-2.27-.78q-29.14-10-29.15-25.14a21.79,21.79,0,0,1,7.86-17.37q7.84-6.72,20.42-6.72,10.39,0,17.81,4.14a23.91,23.91,0,0,1,10.65,11.74l-11.09,6.81a18.56,18.56,0,0,0-7.2-8.46,20.4,20.4,0,0,0-11-3,14.26,14.26,0,0,0-9.82,3.36,11,11,0,0,0-3.8,8.6q0,7.32,15.89,12.3c2,.65,3.55,1.14,4.71,1.49q13,4.18,18.12,9.56t5.1,14.18q0,11.35-8.07,18.38t-21.08,7q-11.18,0-19-4.19A31.09,31.09,0,0,1,402.55,558Z"/><path d="M480.93,453.11a9.58,9.58,0,0,1,2.93-7,9.68,9.68,0,0,1,7.11-2.93,9.51,9.51,0,0,1,7,3,9.82,9.82,0,0,1,2.92,7.16,9.83,9.83,0,0,1-9.95,9.86,9.76,9.76,0,0,1-7.11-2.88A9.65,9.65,0,0,1,480.93,453.11Zm3.23,118.37V491.61H498v79.87Z"/><path d="M519.94,531.76a43.15,43.15,0,0,1,3.23-16.63,42,42,0,0,1,9.43-13.92,43,43,0,0,1,14-9.3,44.27,44.27,0,0,1,16.76-3.18A42.79,42.79,0,0,1,580,492a44.82,44.82,0,0,1,14.18,9.42,41.11,41.11,0,0,1,9.43,13.84,42.92,42.92,0,0,1,3.23,16.54,42.31,42.31,0,0,1-3.23,16.46A41.21,41.21,0,0,1,594.14,562a45.12,45.12,0,0,1-14.27,9.61,42.12,42.12,0,0,1-16.46,3.31,43.25,43.25,0,0,1-16.71-3.27,43.77,43.77,0,0,1-14.1-9.38,44.37,44.37,0,0,1-9.43-14A42.18,42.18,0,0,1,519.94,531.76Zm14.49,0a29.72,29.72,0,0,0,8.47,21.43A27.43,27.43,0,0,0,563.41,562a27.05,27.05,0,0,0,20.34-8.77,31.59,31.59,0,0,0,0-42.86,27.05,27.05,0,0,0-20.34-8.77,27.4,27.4,0,0,0-20.55,8.77A29.77,29.77,0,0,0,534.43,531.76Z"/><path d="M627.74,571.48V491.61h13.35v12.31a33.58,33.58,0,0,1,12.4-11.44,36,36,0,0,1,16.76-3.75q14.14,0,22.08,7.5t7.95,20.87v54.38h-14V524.43q0-12.13-5.11-18t-15.75-5.89a27,27,0,0,0-11.13,2.23,21.9,21.9,0,0,0-8.34,6.33,19.35,19.35,0,0,0-3.62,7.15q-1.1,4-1.09,14v41.29Z"/><path d="M801.35,491.61v79.87H788.08V557a34.89,34.89,0,0,1-12.26,13.31,31.37,31.37,0,0,1-16.72,4.58q-17.19,0-27.71-11.83t-10.52-31.29q0-19.72,10.21-31.38t27.33-11.65a32.86,32.86,0,0,1,17.41,4.49,32.5,32.5,0,0,1,11.92,13.4v-15Zm-13.27,40.68q0-13.53-7.37-21.78t-19.25-8.25q-12.3,0-19.2,7.59t-6.9,21.21q0,14.49,6.94,22.35T762,561.27q12.22,0,19.16-7.64T788.08,532.29Z"/><path d="M829,571.48V436.18h14v135.3Z"/><path d="M942.57,533.59H879.29v1.23q0,12.82,7.33,20.73t19.12,7.9a25.5,25.5,0,0,0,14.49-4.32q6.45-4.32,11.43-13l10.39,7a40,40,0,0,1-37,21.82q-18.25,0-29.51-12t-11.26-31.6q0-18.76,11.18-30.73t28.71-12q17.73,0,28.07,11.35t10.34,31Zm-14.66-11.08q-.7-10.56-7-16.28t-17.33-5.72q-9.94,0-16.58,6t-7.68,16Z"/><path class="cls-1" d="M80.93,683.57h58.22a20.1,20.1,0,0,1,.22,2.44c0,.88,0,2.21,0,4q0,28.71-16.41,46.52T80.58,754.36q-29.76,0-49.06-19T12.23,687.15q0-29,19.38-47.93t49-18.94a62.68,62.68,0,0,1,28.63,6.55,69.09,69.09,0,0,1,23.22,19.55L114,660q-6.9-8.55-14.49-12.35A38.74,38.74,0,0,0,82,643.85q-18.95,0-30.29,11.79T40.34,687.15q0,19.38,11.39,31.29t29.72,11.92q13.44,0,21.83-6.33a19.8,19.8,0,0,0,8.38-16.54v-1.4H80.93Z"/><path class="cls-1" d="M212.56,623.16v84.15q0,14.4-1.14,21.13a35.64,35.64,0,0,1-3.75,11.43,25,25,0,0,1-11.31,10.83q-7.46,3.66-18.11,3.66-13.44,0-21.52-6.72t-10.34-19.73l19.82-9.42q.69,6,3.09,9.07a7.92,7.92,0,0,0,6.59,3.06c3.5,0,5.91-1.27,7.25-3.8s2-8.19,2-17V623.16Z"/><path class="cls-1" d="M239.69,751V623.16h75.25v23.05H267v26.27h47.92V695.7H267v32h47.92V751Z"/><path class="cls-1" d="M433.82,751H402.31L368.7,691.25V751H341.38V623.16h39.11q23.29,0,34.91,9T427,659.39a33.63,33.63,0,0,1-7.94,22.52,31,31,0,0,1-20.51,10.91ZM368.7,677.63h4.11q16.57,0,21.91-3.62T400,661.4q0-9.43-5.72-13.4t-21.51-4H368.7Z"/><path class="cls-1" d="M438.27,751l19.46-127.8h28.63L511,698.41a63.15,63.15,0,0,1,1.7,6.89q.92,4.55,1.7,10.39.71-5.93,1.57-10.6a48.57,48.57,0,0,1,1.66-6.86l25-75.07h28.2L590.41,751H564.49l-9.34-77.08q-1-8.55-1.4-12.92c-.23-2.91-.35-5.61-.35-8.12,0-1.34,0-2.34.05-3s.07-1.27.13-1.79q-1.32,7.51-2.49,13a78.38,78.38,0,0,1-2.14,8.25L521.89,751H506.53L479.9,669.25c-.23-.75-.74-2.85-1.53-6.28s-1.87-8.44-3.27-15v3.76a185.1,185.1,0,0,1-1.57,21.82l-.09.35L464.19,751Z"/><path class="cls-1" d="M592.59,751l48.62-127.8h31.25L721.78,751H690.7l-10.39-27.15H630.82L621.92,751Zm81.35-48.62-14.31-41.29q-.61-1.83-1.58-6.29t-2-10.91q-1.14,6.2-2.19,11.13c-.69,3.29-1.22,5.49-1.57,6.59L638.5,702.34Z"/><path class="cls-1" d="M734.86,751V623.16h28.37l56.57,74.37a58.51,58.51,0,0,1,5.37,8.86q2.91,5.73,6.06,13.49-1-5.67-1.39-11.26t-.44-14V623.16h26.1V751H828.7l-58.14-75.77a55.71,55.71,0,0,1-5.32-8.86q-2.88-5.72-6.11-13.66,1,5.49,1.4,11.13T761,678v73Z"/><path class="cls-1" d="M883.6,751V623.16h75.24v23.05H910.92v26.27h47.92V695.7H910.92v32h47.92V751Z"/><path class="cls-1" d="M917.62,302.55c-.06.22,4.66-1.15,10,.79,8.95,2.81,10.3,16,10,28.26l-18.45-.73v.19l-2.17-.06Zm52.69,2.16-1,27.91-7,0c.46-9.12-.08-19.15-2.69-28.3Zm8.76,51.94c-2.83,2.52-5.71,3.71-8.87,5.61-15.62,9.39-39.18,7.38-44.26-26.88l11.44.45c-.12,2.13-.26,4.21-.41,6.13l24.31,1.5c.31-2.09.56-4.3.75-6.59l11.39,0,1.27-36.21-16.45-.57c-6.35-17-20.94-29.69-51.25-24.8l-2-17s-1.65-8.68-7.91-11.23c-1.66-.68-3.34-1.29-7.8-1.41l-24.48,2.08s.21,3.52.45,5a5.91,5.91,0,0,0,2.74,3.56c.35.41,2.68.6,2.68.6s1.62,15.91,2.53,18.76c.79,2.52,2.65,5.92,5.31,6.33a29.62,29.62,0,0,0,4,.63c0-.23-10,3.64-15.6,2.95-9.75,0-14.69-11.2-19.36-25.08L821.41,265c7,30.11,21.84,50.4,45.47,50.4a29,29,0,0,0,9.1-1.17l1.4,11.2c-31,2.34-50.15,24.73-54.54,54.2-.35,5-1.37,9.29-.51,14h-9.09v10.18h43.85c-.69-3.72-.23-6.81-.23-10.49A34.29,34.29,0,0,1,891.14,359c16.57,43.39,55,49.06,82.22,35.16,4.46-2.27,8.67-3.62,12.26-6.77l4.68,7.78,8.73-5.24Z"/></svg>