<?xml version="1.0" encoding="utf-8"?>
<!-- Generator: Adobe Illustrator 26.0.1, SVG Export Plug-In . SVG Version: 6.00 Build 0)  -->
<svg version="1.1" id="Layer_1" xmlns="http://www.w3.org/2000/svg" xmlns:xlink="http://www.w3.org/1999/xlink" x="0px" y="0px"
	 viewBox="0 0 500 500" style="enable-background:new 0 0 500 500;" xml:space="preserve">
<style type="text/css">
	.st0{fill:#BFD730;}
</style>
<g>
	<path class="st0" d="M249.46,271.26h-11.28l-11.7-15.8c-2.49-3.38-4.15-6-4.97-7.87c-0.83-1.87-1.24-3.71-1.24-5.52
		c0-3.78,1.24-6.95,3.74-9.5c2.49-2.55,5.57-3.83,9.23-3.83c3.66,0,6.8,1.32,9.44,3.95c2.63,2.63,3.95,5.76,3.95,9.38
		c0,2.89-0.75,5.39-2.26,7.48c-1.51,2.09-3.81,3.84-6.91,5.25L249.46,271.26z M279.73,271.26h-11.16l-11.7-15.8
		c-2.61-3.54-4.32-6.21-5.13-8.02c-0.8-1.81-1.21-3.6-1.21-5.37c0-3.78,1.27-6.95,3.8-9.5c2.53-2.55,5.63-3.83,9.29-3.83
		s6.77,1.31,9.35,3.92c2.57,2.61,3.86,5.75,3.86,9.41c0,2.89-0.74,5.39-2.23,7.48c-1.49,2.09-3.78,3.84-6.87,5.25L279.73,271.26z"/>
</g>
<g>
	<path class="st0" d="M981.51,254.79c-3.1-1.41-5.4-3.16-6.91-5.25c-1.51-2.09-2.26-4.58-2.26-7.48c0-3.62,1.32-6.74,3.95-9.38
		c2.63-2.63,5.78-3.95,9.44-3.95c3.66,0,6.74,1.28,9.23,3.83c2.49,2.55,3.74,5.72,3.74,9.5c0,1.81-0.41,3.65-1.24,5.52
		c-0.82,1.87-2.48,4.49-4.97,7.87l-11.7,15.8h-11.28L981.51,254.79z M951.23,254.79c-3.1-1.41-5.39-3.16-6.87-5.25
		c-1.49-2.09-2.23-4.58-2.23-7.48c0-3.66,1.29-6.79,3.86-9.41c2.57-2.61,5.69-3.92,9.35-3.92s6.75,1.28,9.29,3.83
		c2.53,2.55,3.8,5.72,3.8,9.5c0,1.77-0.4,3.56-1.21,5.37s-2.51,4.48-5.13,8.02l-11.7,15.8h-11.16L951.23,254.79z"/>
</g>
</svg>
