<?xml version="1.0" encoding="utf-8"?>
<!-- Generator: Adobe Illustrator 26.0.1, SVG Export Plug-In . SVG Version: 6.00 Build 0)  -->
<svg version="1.1" id="Layer_1" xmlns="http://www.w3.org/2000/svg" xmlns:xlink="http://www.w3.org/1999/xlink" x="0px" y="0px"
	 viewBox="0 0 60.4 43.4" style="enable-background:new 0 0 60.4 43.4;" xml:space="preserve">
<style type="text/css">
	.st0{display:none;}
	.st1{display:inline;}
	.st2{fill:#BFD730;}
	.st3{clip-path:url(#SVGID_00000163030359191936844600000006143206267939076782_);}
</style>
<g id="Layer_2_00000169547694337849447540000018253438543336490924_" class="st0">
	<g class="st1">
		<g>
			<path class="st2" d="M-82-153.2c-27.2,14.4-51.3,34.1-70.9,57.9s-34.3,51.2-43.3,80.7c-8.9,29.4-12,60.4-9,91.1
				c4.4,46.3,22.4,90.2,51.8,126.3s68.8,62.6,113.2,76.2c44.5,13.6,92,13.8,136.5,0.4c44.6-13.4,84.1-39.7,113.7-75.6
				c29.6-35.9,47.8-79.7,52.4-126s-4.6-92.9-26.4-133.9c-21.9-41-55.5-74.6-96.5-96.6C98.6-174.7,52-184,5.7-179.4
				C-25-176.5-54.8-167.7-82-153.2z M43,213.5c-42.3,3.9-84.4-9-117.2-36c-32.8-27-53.7-65.7-58.1-108c-3.1-31.5,3.3-63.2,18.2-91.2
				c15-28,37.9-50.8,65.9-65.7c28-14.9,59.6-21.2,91.2-18.1c31.5,3.2,61.4,15.6,85.9,35.7c24.5,20.1,42.5,47,51.6,77.3
				c9.2,30.3,9.2,62.6,0,93c-9.2,30.3-27.2,57.2-51.7,77.4C104.5,197.9,74.6,210.4,43,213.5L43,213.5z"/>
		</g>
		<g>
			<g>
				<defs>
					<path id="SVGID_1_" d="M149.7-49.8v-198.9h-299.9v155.6c-57.5,24.3,18.5,81.1,18.5,147.5c0,88.4,71.6,160,160,160
						s160-71.6,160-160C188.3,14.5,173.7-21.8,149.7-49.8z"/>
				</defs>
				<clipPath id="SVGID_00000007429413851216330500000000229795711011988115_">
					<use xlink:href="#SVGID_1_"  style="overflow:visible;"/>
				</clipPath>
				<g style="clip-path:url(#SVGID_00000007429413851216330500000000229795711011988115_);">
					
						<image style="overflow:visible;enable-background:new    ;" width="4921" height="3209" xlink:href="95071085.png"  transform="matrix(0.137 0 0 0.137 -308.5049 -219.4539)">
					</image>
				</g>
			</g>
		</g>
	</g>
</g>
<g>
	<path class="st2" d="M29.7,43H18.4L6.7,27.2c-2.5-3.4-4.2-6-5-7.9c-0.8-1.9-1.2-3.7-1.2-5.5c0-3.8,1.2-6.9,3.7-9.5
		c2.5-2.6,5.6-3.8,9.2-3.8c3.7,0,6.8,1.3,9.4,4c2.6,2.6,4,5.8,4,9.4c0,2.9-0.8,5.4-2.3,7.5c-1.5,2.1-3.8,3.8-6.9,5.2L29.7,43z
		 M59.9,43H48.8L37.1,27.2c-2.6-3.5-4.3-6.2-5.1-8c-0.8-1.8-1.2-3.6-1.2-5.4c0-3.8,1.3-6.9,3.8-9.5c2.5-2.6,5.6-3.8,9.3-3.8
		s6.8,1.3,9.3,3.9C55.8,7,57,10.1,57,13.8c0,2.9-0.7,5.4-2.2,7.5c-1.5,2.1-3.8,3.8-6.9,5.2L59.9,43z"/>
</g>
</svg>
