<?xml version="1.0" encoding="utf-8"?>
<!-- Generator: Adobe Illustrator 26.0.1, SVG Export Plug-In . SVG Version: 6.00 Build 0)  -->
<svg version="1.1" id="Layer_1" xmlns="http://www.w3.org/2000/svg" xmlns:xlink="http://www.w3.org/1999/xlink" x="0px" y="0px"
	 viewBox="0 0 60.4 43.4" style="enable-background:new 0 0 60.4 43.4;" xml:space="preserve">
<style type="text/css">
	.st0{display:none;}
	.st1{display:inline;}
	.st2{fill:#BFD730;}
	.st3{clip-path:url(#SVGID_00000176024620056859493910000008441486719568264838_);}
</style>
<g id="Layer_2_00000169547694337849447540000018253438543336490924_" class="st0">
	<g class="st1">
		<g>
			<path class="st2" d="M-82-153.2c-27.2,14.4-51.3,34.1-70.9,57.9s-34.3,51.2-43.3,80.7c-8.9,29.4-12,60.4-9,91.1
				c4.4,46.3,22.4,90.2,51.8,126.3s68.8,62.6,113.2,76.2c44.5,13.6,92,13.8,136.5,0.4c44.6-13.4,84.1-39.7,113.7-75.6
				c29.6-35.9,47.8-79.7,52.4-126s-4.6-92.9-26.4-133.9c-21.9-41-55.5-74.6-96.5-96.6C98.6-174.7,52-184,5.7-179.4
				C-25-176.5-54.8-167.7-82-153.2z M43,213.5c-42.3,3.9-84.4-9-117.2-36c-32.8-27-53.7-65.7-58.1-108c-3.1-31.5,3.3-63.2,18.2-91.2
				c15-28,37.9-50.8,65.9-65.7c28-14.9,59.6-21.2,91.2-18.1c31.5,3.2,61.4,15.6,85.9,35.7c24.5,20.1,42.5,47,51.6,77.3
				c9.2,30.3,9.2,62.6,0,93c-9.2,30.3-27.2,57.2-51.7,77.4C104.5,197.9,74.6,210.4,43,213.5L43,213.5z"/>
		</g>
		<g>
			<g>
				<defs>
					<path id="SVGID_1_" d="M149.7-49.8v-198.9h-299.9v155.6c-57.5,24.3,18.5,81.1,18.5,147.5c0,88.4,71.6,160,160,160
						s160-71.6,160-160C188.3,14.5,173.7-21.8,149.7-49.8z"/>
				</defs>
				<clipPath id="SVGID_00000027573705975360233890000009614703502257849272_">
					<use xlink:href="#SVGID_1_"  style="overflow:visible;"/>
				</clipPath>
				<g style="clip-path:url(#SVGID_00000027573705975360233890000009614703502257849272_);">
					
						<image style="overflow:visible;enable-background:new    ;" width="4921" height="3209" xlink:href="1A18402B.png"  transform="matrix(0.137 0 0 0.137 -308.5049 -219.4539)">
					</image>
				</g>
			</g>
		</g>
	</g>
</g>
<g>
	<path class="st2" d="M42.8,26.4c-3.1-1.4-5.4-3.2-6.9-5.2c-1.5-2.1-2.3-4.6-2.3-7.5c0-3.6,1.3-6.7,4-9.4c2.6-2.6,5.8-4,9.4-4
		c3.7,0,6.7,1.3,9.2,3.8c2.5,2.6,3.7,5.7,3.7,9.5c0,1.8-0.4,3.6-1.2,5.5c-0.8,1.9-2.5,4.5-5,7.9L42.1,42.9H30.8L42.8,26.4z
		 M12.5,26.4c-3.1-1.4-5.4-3.2-6.9-5.2c-1.5-2.1-2.2-4.6-2.2-7.5c0-3.7,1.3-6.8,3.9-9.4c2.6-2.6,5.7-3.9,9.3-3.9s6.8,1.3,9.3,3.8
		c2.5,2.6,3.8,5.7,3.8,9.5c0,1.8-0.4,3.6-1.2,5.4c-0.8,1.8-2.5,4.5-5.1,8L11.7,42.9H0.5L12.5,26.4z"/>
</g>
</svg>
